<svg xmlns="http://www.w3.org/2000/svg" xml:space="preserve" width="2000" height="1500" data-id="lg_hn8ixUafKMY4wbSIAN" data-version="1" viewBox="0 0 2000 1500"><path fill="#7a26c1" stroke="transparent" d="M0 0h2000v1500H0z"/><g data-padding="20"><g transform="translate(-1651.786 -1240.083)scale(2.5829)"><rect width="480.864" height="303.97" x="385.735" y="223.124" fill="none" rx="0" ry="0" transform="translate(400 350.38)"/><path fill="#fff" d="M1087.697 826.399q-8.07 0-13.04-7.66-4.98-7.67-3.9-18.16 1.34-12.91 6.32-30.53 4.97-17.62 12.37-37.13 7.4-19.5 15.74-37.79-3.5 4.84-8.47 11.7-4.98 6.86-11.17 15.74l-4.84 6.99q-6.19 8.88-11.3 15.87-5.11 7-9.14 12.38-.54.54-2.29 2.82-1.75 2.29-4.71 6.05-2.96 3.77-6.32 7.67t-6.86 7.67q-16.14 18.02-21.79 18.02-8.07.27-12.1-7.26-4.04-7.53-4.04-20.72 0-5.38.81-11.83 2.15-20.45 11.3-52.99l6.18-22.06q1.35-4.58 1.89-8.34.53-3.77.8-7 0-3.49 2.29-4.97t5.78-1.48q3.77 0 6.86 1.61 3.1 1.62 2.83 3.5-.81 5.11-2.15 10.49-1.35 5.38-3.23 11.3-.54 2.15-2.02 5.65-1.48 3.49-3.63 8.07l-3.23 7.26q-5.92 13.18-9.41 24.75-3.5 11.57-4.85 23.67-.27 1.08-.27 2.82v3.91q0 8.07 2.83 11.43 2.82 3.36 9.01 3.63 2.69 0 7.13-2.96t9.28-7.26q4.84-4.31 9.28-9.01 4.44-4.71 7.13-8.21 16.14-20.44 29.72-39.68 13.59-19.23 23.14-35.91t13.31-29.05q1.35-4.03 6.46-4.03 4.03 0 7.26 2.69t1.62 5.91l-4.58 8.88q-7.26 14.26-13.85 27.03-6.59 12.78-11.7 24.62l-.27-.27q-11.03 25.29-17.35 46.4-6.32 21.12-8.21 38.33-.53 7.81 2.02 13.72 2.56 5.92 7.67 5.92 6.72 0 14.25-9.68 2.69-3.5 4.85-2.69.8.8.8 1.34 0 1.35-1.07 2.42-5.65 8.34-11.7 12.38-6.06 4.03-11.44 4.03m-221.38 15.07q-17.76 0-28.25-11.44-10.49-11.43-10.49-31.87 0-28.25 20.44-65.1 13.99-25.29 31.07-37.53 17.09-12.24 32.69-12.24 13.72 0 22.73 8.34t9.01 21.25q0 9.69-5.51 20.18-5.52 10.49-16.82 20.98-1.34 1.35-2.69 1.35-1.34 0-1.34-1.62 0-1.61 2.15-3.76 8.07-8.34 12.1-16.82 4.04-8.47 4.04-16 0-10.76-6.99-17.62-7-6.86-17.76-6.86-12.91 0-27.03 10.62-14.13 10.63-26.5 32.96-19.91 36.85-19.91 62.67 0 16.41 7.94 25.56t21.92 9.15q12.65 0 28.25-7.54 15.6-7.53 33.09-22.86 24.21-21.52 44.38-50.84 10.22-14.8 15.6-22.6t5.92-8.61q4.3-5.91 9.15-12.77 4.84-6.86 10.22-14.93.81-1.35 1.61.27 1.35 2.15.27 3.49-6.19 9.15-13.85 21.93-7.67 12.77-17.35 28.64l-4.84 7.81h.26q-21.52 33.35-48.15 55.68-17.75 15.06-34.56 22.59-16.82 7.54-30.8 7.54m276.8-90.39q-3.5 0-3.5-1.61 0-1.35 2.02-3.9 2.02-2.56 4.71-4.44 5.91-3.77 9.28-6.46 3.36-2.69 8.2-9.14.27.54.27 2.15 0 3.5-2.82 8.47-2.83 4.98-6.33 9.01-3.49 4.04-6.18 5.12-2.42.8-5.65.8m-23.94 65.91q-2.16 0-4.04-1.62-1.88-1.61-1.88-4.3 0-5.65 7.8-20.71l2.96-5.92q.54-.54 1.48-2.69t2.82-5.65q1.89-3.77 2.96-6.73 1.08-2.95 1.62-5.64 0-.27 1.07-1.08 1.08-.81 2.15-1.35l1.62-.26q2.15 0 3.63.8 1.48.81.94 2.15-1.88 4.04-3.23 7-1.34 2.96-2.15 5.11h-.27q-2.96 6.72-4.97 12.78-2.02 6.05-1.75 11.43l.27 7.26q-.27 2.69-1.89 4.58-1.07.8-2.96 2.01-1.88 1.21-4.84 2.56-.27.27-1.34.27m26.9-2.68q-4.85 0-4.85-3.77 0-2.42 1.75-6.19 1.75-3.76 3.63-7.26 5.12-9.14 9.42-17.75t8.34-18.29q1.88-4.31 5.65-4.31 4.03 0 2.42 4.84-1.62 4.04-3.23 7.27-7.53 15.33-7.53 20.71 0 2.42 1.61 2.96 3.77-2.96 5.65-4.44t2.15-1.75q3.77-2.96 8.48-6.86 4.7-3.9 10.35-9.01 8.88-8.07 14.8-8.07 7.26 0 6.19 13.18-.27 5.11 0 9.95.26 1.08.26 3.1v4.71q0 2.69 3.23 2.69 3.77 0 7-2.16l5.91-4.03 5.92-3.77q.54-.27 1.89-.27 1.61 0 0 2.42-16.95 20.99-27.98 20.99-2.15 0-4.3-.81-1.89-.81-2.69-4.71-.81-3.9-.95-8.47-.13-4.57-.13-7l.27-8.87q0-5.65-2.96-5.65-6.99 0-34.43 28.78-2.15 2.69-6.73 7.26-4.57 4.58-9.14 4.58"/><rect width="560" height="54.24" x="346.167" y="347.989" fill="none" rx="0" ry="0" transform="translate(400.5 561.91)"/><path fill="#fff" d="M796.607 941.099q.91 0 .91 2.31 0 2.3-.87 4.13-.86 1.82-2.08 2.83-1.23 1.01-2.76 1.63-5.14 2.26-9.6-.1-2.26-1.2-3.46-2.85-1.2-1.66-1.92-3.96-1.1-3.46-1.1-7.25t.72-7.1q.72-3.32 2.2-6.32 1.49-3 4.23-4.82 2.73-1.82 6.33-1.82 1.54 0 3.2.5 1.65.5 2.71 1.25 1.05.74 1.87 2.28.82 1.53.82 3.6 0 2.21-1.06 3.98-.48.82-1.54 1.47-1.05.64-2.49.64-2.21 0-3.12-1.96-.39-.77-.39-1.68 0-.92.63-1.06.67-.19 1.25-1.06.57-.86.57-2.01 0-.91-.48-1.59-.91-1.2-2.64-1.2t-3.14 1.59q-1.42 1.58-2.14 3.98-1.44 4.8-1.44 8.83 0 4.04 1.11 6.48 1.34 3.03 3.4 4.04 1.3.62 2.98.62 2.83 0 5.09-2.54.96-1.01 1.58-2.4.24-.44.63-.44m18.43-5.52-.24 3.65.19 1.68q0 .91-1.73.91-3.5 0-3.5-2.64 0-.62.33-1.72.34-1.11.34-1.92 0-.82-.48-1.42t-1.39-.6-1.56.65-.79 1.32l-.2.67q-.28 1.49-.28 4.97t.09 5.47q.1 1.99.19 2.74.1.74.1.88 0 1.2-1.49 1.95-1.49.74-2.97.74-1.49 0-1.49-.62l.24-1.49q.67-4.18.67-10.9t-.48-9.12q0-.57 1.01-.57 2.59 0 3.45 1.77.05.2.17.2t.65-.44q1.58-1.29 3.74-1.29 1.35 0 2.69.53 2.74 1.1 2.74 4.6m18.18 2.12-.1 6.14q0 6.38 1.4 7.68.19.19.19.43 0 .72-3.1.72-3.09 0-3.29-1.82-.04-.43-.04-1.78l.19-7.68q0-.33-.39-.33-2.3 0-4.32 1.29-2.01 1.3-2.01 3.31 0 1.06.57 1.78.58.72 1.42.72t1.39-.34q.55-.33.65-.38.82.1.82 1.7 0 1.61-1.49 2.6-1.49.98-3.12.98t-2.81-.58q-1.18-.57-1.7-1.29-.53-.72-.87-1.63-.33-1.11-.33-1.92 0-3.36 2.11-5.38t5.42-2.88q4.37-.86 4.56-1.58.15-.53.15-1.78 0-2.54-2.6-2.54-1.1 0-1.96.69-.87.7-.87 1.75l.29 1.16q-.1.81-1.73.96l-.53.04q-1.44 0-2.28-.72t-.84-1.92q0-.76.51-1.7.5-.94 1.27-1.51.77-.58 2.38-1.03 1.6-.46 3.09-.46t2.31.1q.81.09 2.23.45 1.41.36 2.35 1.37t1.01 2.14q.07 1.12.07 3.24"/><path fill="#fff" d="m842.397 940.099.24 9.6q0 3.02-.79 5.35-.8 2.33-1.95 3.48-2.35 2.45-4.13 2.78l-.81.19q-.72 0-.72-.43l.24-.72q3.5-4.85 3.5-23.81 0-1.72-.05-2.59-1 0-2.01.15h-.05q-.53 0-.53-.53l.15-1.83q.04-.43.67-.43h1.73v-3.21l.09-4.56q0-.34.12-.75t1.03-1.25q.92-.84 2.69-1.53 1.78-.7 3.05-.7t1.27.77q0 .29-.43.48-1.39.43-2.28 2.47t-.89 6.94v1.34q2.45-.09 3.22-.24.33 0 .33.58 0 .57-.5 1.41t-1.25.87q-.74.02-1.85-.03-.09 3.65-.09 6.2m3.69-6.72.15-1.92q.05-.44.67-.44h1.68l-.19-3.84v-.19q0-1.1 1.68-2.11t3.07-1.01q.43 0 .43.39v.04q-.19 1.3-.38 6.68 2.11 0 2.69-.1.57-.1.62-.1.34 0 .34.58t-.53 1.46q-.53.89-1.15.94h-2.02q-.05 1.63-.05 5.5 0 3.86.07 6.36.08 2.49.17 3.76.1 1.28.22 2.04.12.77.19 1.11.07.33.07.43 0 .48-.62.53-1.87 0-3.72-.53t-1.85-1.82q1.01-8.07 1.01-17.33-1.3 0-1.97.09h-.05q-.43 0-.53-.52m16.41-6.96-1.15-.05q-1.3 0-1.68.62-.1.15-.24.15-.63 0-.63-2.14t.65-2.71q.65-.58 2.26-.58t2.18.55q.58.56.58 1.85 0 1.3-.43 1.8-.44.51-1.54.51m-3.84 24.24.53-11.19q0-3.98-.91-5.42-.29-.48-.68-.72-.28-.1-.28-.39 0-.86 2.44-1.68 2.45-.81 3.58-.81t1.18.57q0 .96-.27 5.45-.26 4.49-.26 9.43 0 4.95.57 6.15.15.24.15.48 0 .62-1.83.62-1.82 0-3.74-.96-.48-.24-.48-1.53m8.99 1.77q.86-5.18.86-12.43t-.43-9.41q0-.62 1.44-.62 2.21 0 2.93 1.68.04.14.24.14.19 0 .28-.09 1.49-1.54 4.61-1.54t4.95 1.58q1.82 1.59 1.82 4.61 0 1.83-.31 5.19t-.31 4.99q0 3.89 1.29 5.61.19.24.19.48 0 .63-1.34.63-5.95 0-5.95-5.28 0-2.02.91-5.62t.91-5.47q0-3.84-3.17-3.84-1.53 0-2.32.91-.8.91-.89 2.09-.1 1.18-.1 4.44 0 4.99.34 8.69l.09 1.05q0 1.35-1.75 2.09-1.75.75-3.02.75t-1.27-.63m22.32-19.7q1.05-1.08 2.78-1.83 1.73-.74 3.31-.74 1.59 0 3.22.72.19 0 .29-.1 1.24-1.24 3.64-1.24.58 0 .58.52 0 .05-.1.44-.09.38-.24 1.12-.14.75-.24 1.8-.33 2.74-.36 6.05-.02 3.31-.02 6.63l.14 10.08q0 4.84-2.49 8.06-1.01 1.3-3.05 2.26t-4.78.96q-.62-.39-.62-.77 0-.39.53-.63 3.02-1.39 4.32-6.6 1.29-5.2 1.29-15.81l-.09-6.72-.15-3.27q0-.43-1.34-.62-1.73 0-2.9 1.13-1.18 1.13-1.61 2.95-.77 2.93-.77 5.06 0 2.14.7 3.77.69 1.63 2.42 1.63.48 0 .89-.19t.55-.19q.48 0 .48.96t-.14 1.56q-.15.6-.58 1.32-.96 1.58-3.74 1.58-2.79 0-3.99-2.01-1.25-2.07-1.44-3.7-.29-2.45-.29-3.21 0-.77.03-1.23.02-.45.24-1.82.21-1.37.57-2.59.36-1.23 1.13-2.74t1.83-2.59m45.36 8.37q.91 0 .91 2.31 0 2.3-.87 4.13-.86 1.82-2.08 2.83-1.23 1.01-2.76 1.63-5.14 2.26-9.6-.1-2.26-1.2-3.46-2.85-1.2-1.66-1.92-3.96-1.1-3.46-1.1-7.25t.72-7.1q.72-3.32 2.2-6.32 1.49-3 4.23-4.82 2.73-1.82 6.33-1.82 1.54 0 3.2.5 1.65.5 2.71 1.25 1.05.74 1.87 2.28.82 1.53.82 3.6 0 2.21-1.06 3.98-.48.82-1.54 1.47-1.05.64-2.49.64-2.21 0-3.12-1.96-.39-.77-.39-1.68 0-.92.63-1.06.67-.19 1.25-1.06.57-.86.57-2.01 0-.91-.48-1.59-.91-1.2-2.64-1.2t-3.14 1.59q-1.42 1.58-2.14 3.98-1.44 4.8-1.44 8.83 0 4.04 1.11 6.48 1.34 3.03 3.4 4.04 1.3.62 2.98.62 2.83 0 5.09-2.54.96-1.01 1.58-2.4.24-.44.63-.44m8.25-7.1q-1.25.05-1.8.07-.55.03-.55-.26t.29-.58q3.07-2.83 10.37-2.83 2.49 0 3.93.43l.48.15q.58.24.58.52 0 .24-.34.39-1.29.38-2.49 1.22t-1.2 1.18l.28.33q1.54.87 2.38 2.74t.94 3.31l.09 1.49q0 4.75-2.64 7.82-2.64 3.08-7.2 3.08-2.3 0-3.98-.82t-2.47-1.85q-.8-1.03-1.28-2.33-.57-1.77-.57-3.67 0-1.89.65-3.81.64-1.92 1.48-2.84.84-.91 1.9-1.48 1.34-.72 2.16-.72t.82.33l-.29.48q-1.06 1.25-1.51 3.27-.46 2.01-.46 3.57t.38 3.1q.39 1.53.87 2.28.48.74 1.1 1.13.91.57 1.92.57t1.97-.79 1.39-2.09q.87-2.4.87-4.94 0-4.03-2.04-6.24t-6.03-2.21m25.05-3.46q.86 0 1.56.22.69.22.74.22l.29-.24-.19-5.24q-.1-1.34-.58-2.3t-.86-1.25l-.43-.24q-.29-.19-.29-.43 0-.72 2.23-1.68t3.48-.96 1.34.53q.24 1.63.24 6.21 0 4.59-.21 9-.22 4.42-.22 10.01t.72 7.03q.19.34.19.63 0 .72-2.06.72-3.94 0-3.94-1.87-.09-.77-.09-2.38t.31-6 .31-6.77q0-2.37-2.37-2.37-2.38 0-3.63 2.78t-1.25 5.57q0 5.9 2.98 5.9.43 0 .84-.17.41-.16.5-.16.39 0 .6.48.22.48.22.96 0 1.63-1.3 2.76-1.29 1.12-3.16 1.12-2.88 0-4.35-2.52-1.46-2.52-1.46-6.26 0-4.75 2.25-8.83 1.16-2.02 3.12-3.24 1.97-1.23 4.47-1.23m14.74 9.36.05 1.2q0 .29.39.29 1.53-.14 2.68-.79 1.16-.65 1.73-1.46 1.15-1.78 1.25-3.08l.05-.57q0-2.59-2.07-2.59-1.53 0-2.49 1.34-1.59 2.11-1.59 5.66m10.47 6.39q0 1.82-.75 3.19-.74 1.37-1.68 2.02-.93.64-2.18 1.03-1.58.48-3.02.48-4.04 0-5.96-3.03-1.92-3.02-1.92-7.7t2.38-8.33 7.13-3.65q4.32 0 5.85 3.03.63 1.15.63 2.18t-.1 1.63q-.09.6-.67 1.8t-1.54 2.16-3.02 1.83q-2.06.86-4.85 1.15-.38 0-.38.34 0 .43.31 1.27t.7 1.41q1.05 1.35 3.12 1.35 2.06 0 3.5-1.35.77-.72 1.25-1.77.19-.39.5-.39t.51.53q.19.53.19.82m9.2 3.79q0 2.64-1.22 4.56t-2.71 2.21q-.34 0-.34-.15l.1-.28q1.1-1.11 1.34-2.84l.05-.57q0-.82-.67-.91h-.24q-1.11 0-1.51-.48-.41-.48-.41-1.73t.55-1.85 2.14-.6q1.58 0 2.25.6t.67 2.04m19.55-19.58.05 6-.19 8.3q.04.19.14.19t.14-.09q.96-1.35 2.38-1.35t1.42.58q0 1.82.69 2.81.7.98 1.97.98t2.45-1.73q1.17-1.73 1.17-4.61 0-.96-.38-2.3-.77-2.69-2.88-3.6-1.54-.62-4.99-.62-.39 0-.39-.53 0-2.69.96-2.79 1.3 0 2.74-.67 2.88-1.34 2.88-5.52 0-4.51-5.18-4.51l-1.49.1q-.87.19-.96.72v.14q-.53 1.92-.53 8.5m-7.06 22.27.1-.53q.48-.86.82-7.03.33-6.17.33-11.52t-.21-8.59q-.22-3.24-1.18-4.68-.19-.24-.19-.58t.57-.58q3.94-1.53 10.71-1.53 1.68 0 3.65.45 1.96.46 3.24 1.13 1.27.67 2.3 2.07 1.03 1.39 1.18 3.31 0 6.96-5.76 8.01-.29.1-.29.22t.24.26q2.97.48 4.99 2.4 1.01.92 1.82 2.84.82 1.92.82 4.41 0 3.22-1.87 6.1-1.54 2.35-4.47 3.36-1.63.57-3.64.57-5.04 0-6.39-3.21-.05-.15-.14-.15l-.19.2q-1.01 3.36-5.76 3.5-.68 0-.68-.43m41.99-22.03q-.86 5.18-.86 13.2 0 5.9.48 7.77l.19.63q0 .62-1.05.62-3.7 0-4.23-2.06-.05-.24-.21-.24-.17 0-.32.19-1.48 1.97-4.6 1.97-1.73 0-3.6-.87-1.16-.53-1.88-1.85t-.72-3.24l.72-10.51q0-3.31-.67-4.7-.24-.53-.24-.67 0-.29.24-.39.77-.24 1.97-.24 4.66 0 4.66 3.84 0 1.2-.99 5.47-.98 4.28-.98 6.08t.79 2.76 2.21.96q1.41 0 2.23-1.01t.96-2.02l.14-1.01q.2-1.68.2-5.9t-.27-5.35q-.26-1.13-.26-1.42 0-1.2 1.92-1.89 1.92-.7 3.45-.7.72 0 .72.58m7.25-4.32-1.15-.05q-1.3 0-1.68.62-.1.15-.24.15-.62 0-.62-2.14t.64-2.71q.65-.58 2.26-.58t2.18.55q.58.56.58 1.85 0 1.3-.43 1.8-.43.51-1.54.51m-3.84 24.24.53-11.19q0-3.98-.91-5.42-.29-.48-.67-.72-.29-.1-.29-.39 0-.86 2.45-1.68 2.44-.81 3.57-.81t1.18.57q0 .96-.27 5.45-.26 4.49-.26 9.43 0 4.95.58 6.15.14.24.14.48 0 .62-1.82.62-1.83 0-3.75-.96-.48-.24-.48-1.53m15.47-26.02-.29 17.62q0 8.25.53 9.88.14.29.14.58 0 .58-1.39.58t-3.1-.7q-1.7-.7-1.7-1.8.96-6.72.96-17.95l-.19-7.35q-.1-1.34-.55-2.3-.46-.96-.89-1.25l-.39-.24q-.33-.19-.33-.43 0-.67 2.09-1.66 2.08-.98 4.05-.98.77 0 .87.53.19 1.25.19 5.47m12.86 5.9q.87 0 1.56.22.7.22.75.22l.28-.24-.19-5.24q-.09-1.34-.57-2.3t-.87-1.25l-.43-.24q-.29-.19-.29-.43 0-.72 2.23-1.68 2.24-.96 3.48-.96 1.25 0 1.35.53.24 1.63.24 6.21 0 4.59-.22 9-.21 4.42-.21 10.01t.72 7.03q.19.34.19.63 0 .72-2.07.72-3.93 0-3.93-1.87-.1-.77-.1-2.38t.31-6q.32-4.39.32-6.77 0-2.37-2.38-2.37t-3.62 2.78q-1.25 2.78-1.25 5.57 0 5.9 2.97 5.9.44 0 .84-.17.41-.16.51-.16.38 0 .6.48.21.48.21.96 0 1.63-1.29 2.76-1.3 1.12-3.17 1.12-2.88 0-4.34-2.52-1.47-2.52-1.47-6.26 0-4.75 2.26-8.83 1.15-2.02 3.12-3.24 1.97-1.23 4.46-1.23m15.11-4.12-1.15-.05q-1.3 0-1.68.62-.1.15-.24.15-.62 0-.62-2.14t.64-2.71q.65-.58 2.26-.58t2.18.55q.58.56.58 1.85 0 1.3-.43 1.8-.43.51-1.54.51m-3.84 24.24.53-11.19q0-3.98-.91-5.42-.29-.48-.67-.72-.29-.1-.29-.39 0-.86 2.45-1.68 2.44-.81 3.57-.81t1.18.57q0 .96-.27 5.45-.26 4.49-.26 9.43 0 4.95.58 6.15.14.24.14.48 0 .62-1.82.62-1.83 0-3.75-.96-.48-.24-.48-1.53m8.99 1.77q.86-5.18.86-12.43t-.43-9.41q0-.62 1.44-.62 2.21 0 2.93 1.68.05.14.24.14t.29-.09q1.48-1.54 4.6-1.54t4.95 1.58q1.82 1.59 1.82 4.61 0 1.83-.31 5.19t-.31 4.99q0 3.89 1.29 5.61.2.24.2.48 0 .63-1.35.63-5.95 0-5.95-5.28 0-2.02.91-5.62t.91-5.47q0-3.84-3.16-3.84-1.54 0-2.33.91t-.89 2.09-.1 4.44q0 4.99.34 8.69l.1 1.05q0 1.35-1.76 2.09-1.75.75-3.02.75t-1.27-.63m22.31-19.7q1.05-1.08 2.78-1.83 1.73-.74 3.31-.74 1.59 0 3.22.72.19 0 .29-.1 1.25-1.24 3.65-1.24.57 0 .57.52 0 .05-.09.44-.1.38-.24 1.12-.15.75-.24 1.8-.34 2.74-.36 6.05-.03 3.31-.03 6.63l.15 10.08q0 4.84-2.5 8.06-1.01 1.3-3.05 2.26t-4.77.96q-.63-.39-.63-.77 0-.39.53-.63 3.02-1.39 4.32-6.6 1.3-5.2 1.3-15.81l-.1-6.72-.14-3.27q0-.43-1.35-.62-1.73 0-2.9 1.13-1.18 1.13-1.61 2.95-.77 2.93-.77 5.06 0 2.14.7 3.77.69 1.63 2.42 1.63.48 0 .89-.19t.55-.19q.48 0 .48.96t-.14 1.56q-.15.6-.58 1.32-.96 1.58-3.74 1.58-2.79 0-3.99-2.01-1.24-2.07-1.44-3.7-.28-2.45-.28-3.21 0-.77.02-1.23.02-.45.24-1.82t.58-2.59q.36-1.23 1.12-2.74.77-1.51 1.83-2.59m34.7-11.74q-.86 0-1.49.29-.62.29-.62.72-.58 2.02-.58 12.02 0 10.01-.04 11.21.91 1.44 2.83 1.44 3.41 0 5.13-3.77 1.73-3.76 1.73-9.45t-1.68-9.07q-1.68-3.39-5.28-3.39m-9.17 31.63q-.72-.09-.72-.43l.15-.57q1.2-2.6 1.2-18.68 0-7.68-.41-9.6t-.65-2.44l-.24-.48q-.19-.2-.19-.56t.58-.6q3.74-1.48 9.84-1.48 12.81 0 12.81 16.32 0 6.38-2.25 11.66-.92 2.02-2.12 3.48t-3.14 2.45q-1.94.98-4.3.98-.48-.05-1.22-.14-.74-.1-2.21-.72-1.46-.63-1.99-1.63-1.78 2.44-5.14 2.44m39.18-17.04-.24 3.65.19 1.68q0 .91-1.72.91-3.51 0-3.51-2.64 0-.62.34-1.72.33-1.11.33-1.92 0-.82-.48-1.42t-1.39-.6-1.56.65-.79 1.32l-.19.67q-.29 1.49-.29 4.97t.1 5.47q.09 1.99.19 2.74.09.74.09.88 0 1.2-1.48 1.95-1.49.74-2.98.74t-1.49-.62l.24-1.49q.67-4.18.67-10.9t-.48-9.12q0-.57 1.01-.57 2.59 0 3.46 1.77.05.2.17.2t.64-.44q1.59-1.29 3.75-1.29 1.34 0 2.69.53 2.73 1.1 2.73 4.6m6.72 4.32.05 1.2q0 .29.38.29 1.54-.14 2.69-.79t1.73-1.46q1.15-1.78 1.25-3.08l.05-.57q0-2.59-2.07-2.59-1.53 0-2.49 1.34-1.59 2.11-1.59 5.66m10.47 6.39q0 1.82-.75 3.19-.74 1.37-1.68 2.02-.93.64-2.18 1.03-1.59.48-3.03.48-4.03 0-5.95-3.03-1.92-3.02-1.92-7.7t2.38-8.33q2.37-3.65 7.13-3.65 4.32 0 5.85 3.03.63 1.15.63 2.18t-.1 1.63-.67 1.8q-.58 1.2-1.54 2.16t-3.02 1.83q-2.07.86-4.85 1.15-.38 0-.38.34 0 .43.31 1.27t.69 1.41q1.06 1.35 3.12 1.35 2.07 0 3.51-1.35.77-.72 1.25-1.77.19-.39.5-.39t.5.53q.2.53.2.82m18.67-8.59-.1 6.14q0 6.38 1.39 7.68.2.19.2.43 0 .72-3.1.72t-3.29-1.82q-.05-.43-.05-1.78l.2-7.68q0-.33-.39-.33-2.3 0-4.32 1.29-2.01 1.3-2.01 3.31 0 1.06.57 1.78.58.72 1.42.72t1.39-.34q.55-.33.65-.38.81.1.81 1.7 0 1.61-1.48 2.6-1.49.98-3.12.98-1.64 0-2.81-.58-1.18-.57-1.71-1.29-.52-.72-.86-1.63-.34-1.11-.34-1.92 0-3.36 2.12-5.38 2.11-2.02 5.42-2.88 4.37-.86 4.56-1.58.14-.53.14-1.78 0-2.54-2.59-2.54-1.1 0-1.97.69-.86.7-.86 1.75l.29 1.16q-.1.81-1.73.96l-.53.04q-1.44 0-2.28-.72t-.84-1.92q0-.76.51-1.7.5-.94 1.27-1.51.77-.58 2.37-1.03 1.61-.46 3.1-.46t2.3.1q.82.09 2.24.45 1.41.36 2.35 1.37.93 1.01 1.01 2.14.07 1.12.07 3.24m13.77 14.69q.68-3.36.68-9.43t-.05-7.17q-.05-1.11-.67-1.78-.63-.67-1.08-.77-.46-.09-1.28-.09-.81 0-1.58.74t-.91 1.51l-.19.77q-.15 1.44-.15 6.38 0 4.95.22 6.22.21 1.27.21 1.7 0 .44-.38.87-1.63 1.73-4.61 1.73-1.05 0-1.05-.63.96-5.76.96-14.69 0-3.31-.15-4.46l-.19-1.54q-.05-.52-.19-1.15 0-.57 1.49-.57 2.2 0 2.92 1.63.05.19.2.19.14 0 .67-.38 1.58-1.25 4.27-1.25 1.54 0 3.02.57 1.49.58 2.07 1.54.05.1.14.1.1 0 .29-.2 2.02-2.01 5.23-2.01 4.27 0 5.86 3.07.57 1.2.57 3.02 0 1.83-.28 5.19-.29 3.36-.29 5.13 0 1.78.36 3.22t.72 2.06q.36.63.36.72 0 .63-1.35.63-3.31 0-4.6-1.35-1.3-1.34-1.3-3.52 0-2.19.89-5.91t.89-5.59q0-3.79-3.08-3.79-1.29 0-2.06.77-.77.76-.91 1.53l-.1.77q-.19 2.21-.19 5.33t.1 4.87q.09 1.75.19 2.74.09.98.09 1.17 0 1.35-1.68 2.07t-3.26.72q-.82 0-.82-.68m33.35-6.87q0 2.06-.79 3.6t-1.8 2.26-2.4 1.15q-1.82.57-3.31.57-3.12 0-5.18-1.22-2.07-1.22-2.07-3.91 0-1.59.87-2.59 1.34-1.49 3.21-1.49.58 0 .58.53 0 .04-.22.74-.21.7-.21 1.75 0 1.06.84 1.87.84.82 2.04.82t1.92-.41 1-1.03q.44-.86.44-1.63 0-1.39-1.4-2.4-1.39-1.01-3.07-1.59-1.68-.57-3.07-1.92-1.39-1.34-1.39-3.36 0-3.45 2.18-5.18 2.19-1.73 5.93-1.73 1.63 0 3.43.46 1.8.45 1.8 1.53t-.36 2q-.36.91-.89.91-.28 0-.38-.22-.1-.21-.34-.5t-1.15-.75q-.91-.45-1.56-.45t-.86.02q-.22.03-.75.15-.52.12-.96.36-1.1.62-1.1 1.82 0 .77.34 1.13.33.36.52.55.2.19.68.46.48.26.67.36.19.09.86.4.67.32.87.41 5.08 2.4 5.08 6.53"/></g><path fill="transparent" stroke="transparent" stroke-width="2.679" d="M250 222.321h1500V1277.68H250z"/></g></svg>